Coordinates
version=1
nRows=35
nColumns=38
inDegrees=no

Units are S.I. units (second, meters, Newtons, ...)
If the header above contains a line with 'inDegrees', this indicates whether rotational values are in degrees (yes) or radians (no).

endheader
time	pelvis_tilt	pelvis_list	pelvis_rotation	pelvis_tx	pelvis_ty	pelvis_tz	hip_flexion_r	hip_adduction_r	hip_rotation_r	knee_angle_r	ankle_angle_r	subtalar_angle_r	mtp_angle_r	hip_flexion_l	hip_adduction_l	hip_rotation_l	knee_angle_l	ankle_angle_l	subtalar_angle_l	mtp_angle_l	lumbar_extension	lumbar_bending	lumbar_rotation	arm_flex_r	arm_add_r	arm_rot_r	elbow_flex_r	pro_sup_r	wrist_flex_r	wrist_dev_r	arm_flex_l	arm_add_l	arm_rot_l	elbow_flex_l	pro_sup_l	wrist_flex_l	wrist_dev_l
0.51	0.236081	1.34543	-1.87727	0.749105	1.18581	0.94119	-0.332553	-0.0157431	-0.255345	0.131591	0.170523	0	0	0.347026	-0.0686357	-0.279075	0.602925	0.0789354	0	0	-0.231056	-0.0199095	0.0814611	0.330201	-0.128936	-0.504559	1.69106	0	0	0	0.464071	-0.218469	-0.431015	1.60062	0.596361	0	0
0.52	0.249242	1.35186	-1.88639	0.750446	1.17433	0.939169	-0.342748	-0.0170683	-0.258548	0.125915	0.178681	0	0	0.341294	-0.0549803	-0.286203	0.525168	0.0803507	0	0	-0.222774	-0.0188331	0.0799216	0.329705	-0.130105	-0.505608	1.69249	0	0	0	0.466785	-0.218458	-0.427333	1.5967	0.588526	0	0
0.53	0.26611	1.35771	-1.89906	0.751859	1.16273	0.937091	-0.353323	-0.0192748	-0.262787	0.120673	0.186717	0	0	0.332414	-0.0386355	-0.288577	0.445599	0.0809856	0	0	-0.214402	-0.0187016	0.0782005	0.330365	-0.130534	-0.507818	1.69239	0	0	0	0.469126	-0.2193	-0.420026	1.59519	0.63455	0	0
0.54	0.285343	1.36254	-1.9142	0.753327	1.15101	0.935027	-0.364519	-0.0220844	-0.26676	0.116509	0.19933	0	0	0.319419	-0.0201848	-0.284926	0.364332	0.0804368	0	0	-0.206536	-0.0191181	0.0762926	0.329786	-0.131107	-0.508826	1.69359	0	0	0	0.472448	-0.219705	-0.419717	1.58712	0.586259	0	0
0.55	0.305366	1.36695	-1.9304	0.754824	1.13905	0.932843	-0.375236	-0.0257021	-0.274277	0.113953	0.204615	0	0	0.303675	-0.00103663	-0.275275	0.284693	0.0792842	0	0	-0.198373	-0.0198044	0.0743944	0.33004	-0.131301	-0.510696	1.69317	0	0	0	0.474727	-0.220758	-0.416081	1.58336	0.593772	0	0
0.56	0.322586	1.37194	-1.9442	0.756274	1.12686	0.930425	-0.384246	-0.0288278	-0.283072	0.114789	0.212219	0	0	0.286931	0.0168198	-0.258942	0.209933	0.0751583	0	0	-0.189093	-0.0196245	0.072708	0.329075	-0.131786	-0.511641	1.69367	0	0	0	0.476156	-0.221998	-0.41173	1.57985	0.600848	0	0
0.57	0.336078	1.37706	-1.95545	0.757534	1.11441	0.927846	-0.391974	-0.0315911	-0.291899	0.119201	0.222816	0	0	0.27183	0.0313699	-0.244257	0.147495	0.0695952	0	0	-0.179174	-0.0188583	0.0719233	0.329539	-0.131661	-0.513108	1.69243	0	0	0	0.476992	-0.223247	-0.408383	1.57617	0.606846	0	0
0.58	0.346536	1.38193	-1.96504	0.758554	1.10177	0.925175	-0.39859	-0.0344604	-0.300277	0.126995	0.234586	0	0	0.260381	0.042214	-0.237038	0.10238	0.0640838	0	0	-0.169258	-0.0179796	0.0719878	0.32861	-0.131778	-0.512741	1.69234	0	0	0	0.477394	-0.224791	-0.406414	1.57273	0.612939	0	0
0.59	0.35066	1.38594	-1.97023	0.759252	1.0889	0.922587	-0.405512	-0.0371166	-0.306645	0.136494	0.24419	0	0	0.251907	0.0492334	-0.239114	0.0754579	0.0605809	0	0	-0.160186	-0.0165885	0.0734737	0.329565	-0.131033	-0.513284	1.6905	0	0	0	0.47825	-0.225819	-0.41208	1.56218	0.505282	0	0
0.6	0.352884	1.38681	-1.97562	0.7597	1.07584	0.920196	-0.413179	-0.042496	-0.314613	0.151441	0.255165	0	0	0.241309	0.0555445	-0.242761	0.060535	0.0566724	0	0	-0.154108	-0.0171364	0.0770882	0.32901	-0.130766	-0.512791	1.69266	0	0	0	0.477413	-0.228582	-0.401394	1.56804	0.64105	0	0
0.61	0.353812	1.386	-1.98059	0.76004	1.06256	0.918016	-0.42259	-0.0484955	-0.317717	0.166381	0.264442	0	0	0.231557	0.0604182	-0.246779	0.0609259	0.0545103	0	0	-0.14926	-0.0183921	0.0813592	0.329	-0.129997	-0.513262	1.68874	0	0	0	0.47746	-0.23045	-0.399485	1.56512	0.634713	0	0
0.62	0.354193	1.38295	-1.98666	0.760225	1.04916	0.916118	-0.431081	-0.0578119	-0.324529	0.187794	0.27374	0	0	0.219949	0.0648747	-0.247965	0.0704929	0.0510392	0	0	-0.146578	-0.0209013	0.0874269	0.327473	-0.129558	-0.513107	1.68872	0	0	0	0.477624	-0.232113	-0.397513	1.56274	0.628713	0	0
0.63	0.353783	1.37884	-1.99332	0.760302	1.03553	0.914362	-0.438557	-0.0691958	-0.330531	0.213634	0.282997	0	0	0.208076	0.0688243	-0.249759	0.0857203	0.0508347	0	0	-0.144811	-0.0238872	0.0944332	0.327036	-0.128352	-0.513861	1.68814	0	0	0	0.477008	-0.233826	-0.396091	1.56164	0.623177	0	0
0.64	0.357308	1.37427	-2.00448	0.760435	1.02173	0.912761	-0.44403	-0.0829872	-0.334655	0.243997	0.292295	0	0	0.196315	0.0735338	-0.252288	0.0989494	0.0481558	0	0	-0.143076	-0.0278376	0.101257	0.325193	-0.127135	-0.513248	1.68853	0	0	0	0.475372	-0.235713	-0.39619	1.56143	0.618127	0	0
0.65	0.369142	1.36882	-2.02342	0.760835	1.00792	0.911394	-0.446994	-0.100403	-0.339335	0.279746	0.29972	0	0	0.18437	0.0803998	-0.255691	0.105343	0.0297874	0	0	-0.141629	-0.033614	0.10666	0.325033	-0.125019	-0.513071	1.68696	0	0	0	0.473024	-0.237684	-0.398564	1.56184	0.613546	0	0
0.66	0.388576	1.36256	-2.0487	0.761563	0.994198	0.910338	-0.447109	-0.121133	-0.344541	0.320566	0.301933	0	0	0.174302	0.0879353	-0.264855	0.110115	-0.0098511	0	0	-0.140676	-0.0412589	0.110231	0.324184	-0.122712	-0.512092	1.68529	0	0	0	0.470579	-0.239471	-0.402518	1.56301	0.609306	0	0
0.67	0.407654	1.3643	-2.0686	0.762904	0.980878	0.908577	-0.433803	-0.13839	-0.350279	0.373193	0.304315	0	0	0.208738	0.0726765	-0.342079	0.193284	-0.0195778	0	0	-0.132913	-0.0446744	0.10929	0.323184	-0.120582	-0.511384	1.68315	0	0	0	0.467389	-0.240591	-0.403776	1.56785	0.654099	0	0
0.68	0.418455	1.35975	-2.08109	0.764095	0.967359	0.90804	-0.427683	-0.155978	-0.348342	0.422279	0.295255	0	0	0.215979	0.0673377	-0.374156	0.23823	-0.0400158	0	0	-0.131996	-0.049901	0.1086	0.323075	-0.117736	-0.511233	1.67998	0	0	0	0.464826	-0.241486	-0.407484	1.56858	0.64904	0	0
0.69	0.433943	1.35306	-2.09783	0.765505	0.953991	0.908179	-0.416711	-0.177767	-0.346263	0.482635	0.281503	0	0	0.219502	0.0654546	-0.395434	0.283015	-0.0429342	0	0	-0.133108	-0.0569755	0.106898	0.323001	-0.115062	-0.51019	1.67595	0	0	0	0.461966	-0.241795	-0.411392	1.56908	0.644198	0	0
0.7	0.445284	1.34426	-2.10956	0.76711	0.940774	0.909165	-0.402353	-0.200716	-0.341445	0.550654	0.256823	0	0	0.218336	0.0665915	-0.404334	0.324799	-0.0355492	0	0	-0.137301	-0.0640219	0.104095	0.323073	-0.113125	-0.508392	1.67189	0	0	0	0.459193	-0.240988	-0.416434	1.56891	0.640097	0	0
0.71	0.45529	1.33527	-2.11838	0.769062	0.927756	0.910808	-0.381816	-0.223847	-0.331947	0.624959	0.216541	0	0	0.212549	0.0714982	-0.40334	0.357382	-0.0262013	0	0	-0.142658	-0.0702215	0.0997293	0.322403	-0.112376	-0.505819	1.66893	0	0	0	0.455935	-0.238905	-0.421447	1.56814	0.635418	0	0
0.72	0.46892	1.32813	-2.12912	0.771464	0.91498	0.912727	-0.355649	-0.244753	-0.300399	0.69854	0.162605	0	0	0.203734	0.0803409	-0.396291	0.37761	-0.0192372	0	0	-0.146503	-0.0753031	0.0939711	0.321469	-0.112763	-0.503111	1.6662	0	0	0	0.452069	-0.235909	-0.426533	1.56637	0.630714	0	0
0.73	0.482459	1.32327	-2.13817	0.774013	0.902369	0.914593	-0.319523	-0.264816	-0.282959	0.778934	0.0951443	0	0	0.192829	0.0902259	-0.388814	0.388622	-0.012769	0	0	-0.148536	-0.0790816	0.0873239	0.319993	-0.11367	-0.501273	1.66491	0	0	0	0.447315	-0.234433	-0.424041	1.5685	0.695449	0	0
0.74	0.495826	1.32013	-2.14647	0.776634	0.889889	0.916234	-0.278629	-0.281532	-0.260563	0.858269	0.0212383	0	0	0.179763	0.101102	-0.382327	0.391985	-0.00640354	0	0	-0.149159	-0.0816653	0.08035	0.317454	-0.115301	-0.499067	1.66704	0	0	0	0.443044	-0.234208	-0.424131	1.56755	0.703138	0	0
0.75	0.505569	1.31766	-2.15129	0.779093	0.877529	0.917685	-0.235902	-0.29444	-0.235554	0.934427	-0.0508537	0	0	0.163392	0.112022	-0.375831	0.389047	0.000118953	0	0	-0.14966	-0.0833551	0.0733924	0.315185	-0.116253	-0.497779	1.66977	0	0	0	0.43913	-0.235924	-0.423434	1.56642	0.698159	0	0
0.76	0.513775	1.31535	-2.15599	0.78124	0.86534	0.918949	-0.190821	-0.304299	-0.207067	1.00852	-0.121114	0	0	0.14419	0.123227	-0.369265	0.380505	0.00492166	0	0	-0.150495	-0.0850995	0.0678798	0.311297	-0.116739	-0.496129	1.67539	0	0	0	0.435939	-0.239218	-0.421264	1.56589	0.694353	0	0
0.77	0.519645	1.31052	-2.1591	0.783063	0.853175	0.920288	-0.145181	-0.316511	-0.197984	1.08256	-0.192079	0	0	0.120475	0.135786	-0.360967	0.368152	0.00685571	0	0	-0.15408	-0.0884777	0.0627487	0.306203	-0.116112	-0.494348	1.68403	0	0	0	0.433929	-0.244052	-0.419123	1.56643	0.689131	0	0
0.78	0.520023	1.30458	-2.15795	0.784504	0.841342	0.921773	-0.10563	-0.322354	-0.169763	1.14406	-0.245525	0	0	0.0956198	0.146987	-0.35146	0.356218	0.00717147	0	0	-0.160346	-0.0919283	0.0580215	0.302797	-0.113955	-0.493269	1.69235	0	0	0	0.433203	-0.249755	-0.417264	1.56862	0.684629	0	0
0.79	0.506992	1.29718	-2.14355	0.78703	0.829536	0.923552	-0.0728377	-0.338604	-0.138514	1.192	-0.265417	0	0	0.0680113	0.158955	-0.33722	0.344668	0.00507129	0	0	-0.170326	-0.0910854	0.0521109	0.301139	-0.112093	-0.492857	1.69979	0	0	0	0.433176	-0.254651	-0.411938	1.57565	0.732278	0	0
0.8	0.494753	1.28957	-2.12964	0.788071	0.817995	0.925571	-0.042679	-0.338381	-0.113909	1.24009	-0.251799	0	0	0.0409255	0.165523	-0.325019	0.336155	0.00715002	0	0	-0.180496	-0.0925087	0.0459435	0.301074	-0.108315	-0.491673	1.70385	0	0	0	0.433594	-0.259916	-0.411566	1.58024	0.738549	0	0
0.81	0.481748	1.28368	-2.11443	0.789458	0.806616	0.927753	-0.0126617	-0.336084	-0.0921075	1.28639	-0.208421	0	0	0.0146579	0.17047	-0.311511	0.327366	0.00967988	0	0	-0.18885	-0.0915313	0.0390674	0.301521	-0.105335	-0.489412	1.70784	0	0	0	0.433046	-0.263624	-0.412272	1.58331	0.743851	0	0
0.82	0.466828	1.27965	-2.0973	0.790723	0.795117	0.930113	0.0177249	-0.330547	-0.0733224	1.32754	-0.154095	0	0	-0.0121969	0.173676	-0.299312	0.315205	0.0116982	0	0	-0.194641	-0.0887573	0.0321079	0.302857	-0.103547	-0.486165	1.70401	0	0	0	0.431934	-0.265264	-0.41695	1.5821	0.707524	0	0
0.83	0.44758	1.27762	-2.07641	0.791865	0.783757	0.932587	0.0480105	-0.321578	-0.0580343	1.36042	-0.102336	0	0	-0.038746	0.173935	-0.291288	0.301916	0.0143821	0	0	-0.199197	-0.0833332	0.02642	0.304053	-0.10358	-0.481839	1.70044	0	0	0	0.430463	-0.265134	-0.419509	1.58077	0.709035	0	0
0.84	0.426583	1.27733	-2.05415	0.793031	0.772703	0.935043	0.0786026	-0.310492	-0.045112	1.3845	-0.0599014	0	0	-0.0639716	0.172237	-0.28673	0.28805	0.0170909	0	0	-0.202739	-0.0762638	0.0217161	0.305664	-0.10507	-0.477066	1.69608	0	0	0	0.429318	-0.263892	-0.42182	1.57828	0.710967	0	0
0.85	0.407354	1.27864	-2.03329	0.794208	0.762033	0.937263	0.11034	-0.298551	-0.0336109	1.402	-0.0268408	0	0	-0.086077	0.16961	-0.283996	0.27515	0.019529	0	0	-0.20526	-0.0689269	0.0173313	0.307993	-0.106984	-0.473107	1.69131	0	0	0	0.4292	-0.262117	-0.423942	1.57597	0.713995	0	0
